<?xml version="1.0" encoding="utf-8"?>
<!-- Generator: Adobe Illustrator 27.6.1, SVG Export Plug-In . SVG Version: 6.00 Build 0)  -->
<svg version="1.1" id="Layer_1" xmlns="http://www.w3.org/2000/svg" xmlns:xlink="http://www.w3.org/1999/xlink" x="0px" y="0px"
	 viewBox="0 0 512 512" style="enable-background:new 0 0 512 512;" xml:space="preserve">
  <style type="text/css">
    .st0{fill:#FFFFFF;}
    .st1{fill:#2A2935;}
    .st2{fill:#458AC9;}
    .st3{fill:#F16A21;}
  </style>
  <rect class="st0" width="512" height="512"/>
  <g transform="translate(12,14) scale(0.95)">
    <path class="st1" d="M252.5-0.2C113.2-0.2-0.2,97.7-0.2,218.1c0,97.7,75.2,183.5,183.4,210V487l4,1.6c19,7.5,38.9,11.8,59.2,12.6
      c2.4,0.1,4.7,0.1,7.1,0.1c22.6,0,44.9-4.3,66.2-12.7l4.1-1.6v-60.4c50.5-12.8,95.9-39.3,128.3-75c34.8-38.3,53.2-84.5,53.2-133.5
      C505.3,97.7,391.9-0.2,252.5-0.2z M315.9,415.4l-5.1,1.2l0.1,5.2v56.5c-20.6,7.6-42.1,11-64,10.1c-17.4-0.7-34.5-4.1-50.9-10.1V418
      l-5-1.1C86,393,12.6,311.3,12.6,218.1c0-113.3,107.6-205.5,239.9-205.5s239.9,92.2,239.9,205.5C492.4,309.9,419.9,391,315.9,415.4
      L315.9,415.4z"/>
    <path class="st1" d="M304.4,256.9l-1.7-1.6c-17.4-16.4-35.7-24.1-54.2-22.9c-27.5,1.7-45,22.6-45.8,23.5l-1.2,1.5l-0.2,1.9
      c-4.8,43.9,46.3,74.1,48.5,75.3l3.3,1.9l3.3-2c52.3-32.2,48.5-73.5,48.3-75.2L304.4,256.9L304.4,256.9z M253,321.4
      c-10.2-6.8-40.8-29.8-39.1-58.8c4-4.2,17.1-16.3,35.4-17.5c14.1-0.9,28.5,5.1,42.6,17.7C291.9,270.8,288.8,297.9,253,321.4
      L253,321.4z"/>
    <path class="st1" d="M164.1,194.4c-8,0-14.4,6.4-14.4,14.4s6.4,14.4,14.4,14.4s14.4-6.4,14.4-14.4S172.1,194.4,164.1,194.4z"/>
    <circle class="st1" cx="341.3" cy="208.8" r="14.4"/>
    <ellipse class="st2" cx="408.9" cy="286.1" rx="36.1" ry="25.2"/>
    <ellipse class="st3" cx="97.5" cy="286.1" rx="36.1" ry="25.2"/>
  </g>
</svg>