<?xml version="1.0" encoding="UTF-8"?>
<svg xmlns="http://www.w3.org/2000/svg" width="512" height="512" viewBox="0 0 520 520">
  <rect width="100%" height="100%" fill="#fff" />
  <g transform="translate(12,14) scale(0.95)" >
    <path stroke-width="8px" d="m256.69,0C115.15,0,0,99.49,0,221.77c0,99.26,76.34,186.33,186.3,213.32v59.77l4.11,1.63c19.29,7.66,39.53,11.96,60.15,12.76,2.4.09,4.79.14,7.19.14,22.99,0,45.56-4.33,67.2-12.9l4.12-1.63v-61.33c51.29-13,97.4-39.92,130.29-76.16,35.34-38.94,54.02-85.83,54.02-135.61C513.37,99.49,398.22,0,256.69,0Zm64.35,422.08l-5.15,1.2.12,5.28.02,57.39c-20.94,7.69-42.77,11.15-64.96,10.28-17.68-.69-35.07-4.15-51.74-10.28v-61.23l-5.08-1.15C87.55,399.41,13.03,316.42,13.03,221.77,13.03,106.67,122.33,13.03,256.69,13.03s243.65,93.64,243.65,208.74c0,93.22-73.73,175.59-179.3,200.31Z"/>
    <path d="m309.4,261.15l-1.76-1.66c-17.71-16.61-36.23-24.44-55-23.24-27.92,1.76-45.75,22.94-46.5,23.84l-1.25,1.5-.21,1.94c-4.91,44.57,47.01,75.21,49.22,76.49l3.37,1.95,3.32-2.04c53.08-32.67,49.27-74.61,49.08-76.38l-.26-2.41Zm-52.24,65.52c-10.33-6.9-41.45-30.23-39.71-59.68,4.06-4.22,17.4-16.56,36-17.74,14.37-.9,28.96,5.13,43.31,17.95-.1,8.1-3.29,35.62-39.6,59.46Z"/>
    <path d="m166.91,197.64c-8.09,0-14.64,6.55-14.64,14.64s6.55,14.64,14.64,14.64,14.64-6.55,14.64-14.64-6.55-14.64-14.64-14.64Z"/>
    <circle cx="346.78" cy="212.28" r="14.64"/>
    <ellipse cx="415.47" cy="290.79" rx="36.68" ry="25.58"/>
    <ellipse cx="99.18" cy="290.79" rx="36.68" ry="25.58"/>
  </g>
</svg>